<svg id="svg" version="1.1" xmlns="http://www.w3.org/2000/svg" xmlns:xlink="http://www.w3.org/1999/xlink" width="400" height="400" viewBox="0, 0, 400,400"><g id="svgg"><path id="path0" d="M197.919 60.100 C 196.912 61.915,195.549 64.390,194.891 65.600 C 194.234 66.810,192.980 69.060,192.104 70.600 C 191.229 72.140,189.877 74.570,189.100 76.000 C 188.323 77.430,186.075 81.480,184.105 85.000 C 182.135 88.520,179.887 92.570,179.109 94.000 C 178.332 95.430,176.980 97.860,176.105 99.400 C 175.229 100.940,173.877 103.370,173.100 104.800 C 172.323 106.230,170.075 110.280,168.105 113.800 C 166.135 117.320,163.887 121.370,163.109 122.800 C 162.332 124.230,160.980 126.660,160.105 128.200 C 159.229 129.740,157.877 132.170,157.100 133.600 C 156.323 135.030,154.075 139.080,152.105 142.600 C 150.135 146.120,147.887 150.170,147.109 151.600 C 146.332 153.030,144.980 155.460,144.105 157.000 C 143.229 158.540,141.877 160.970,141.100 162.400 C 140.323 163.830,138.075 167.880,136.105 171.400 C 134.135 174.920,131.884 178.970,131.104 180.400 C 130.323 181.830,126.724 188.310,123.105 194.800 C 119.487 201.290,115.887 207.770,115.105 209.200 C 114.324 210.630,110.724 217.110,107.105 223.600 C 103.487 230.090,99.887 236.570,99.105 238.000 C 98.324 239.430,94.724 245.910,91.105 252.400 C 87.487 258.890,83.887 265.370,83.105 266.800 C 82.324 268.230,78.724 274.710,75.105 281.200 C 71.487 287.690,67.887 294.170,67.105 295.600 C 66.324 297.030,62.724 303.510,59.105 310.000 C 55.487 316.490,51.887 322.970,51.106 324.400 C 50.325 325.830,47.619 330.690,45.093 335.200 C 42.567 339.710,40.578 343.535,40.674 343.700 C 40.858 344.018,359.600 344.132,359.600 343.814 C 359.600 343.652,357.451 339.743,356.404 338.000 C 356.062 337.431,351.704 329.544,349.109 324.800 C 347.692 322.209,340.915 310.070,340.399 309.200 C 340.052 308.614,335.502 300.375,333.109 296.000 C 331.692 293.409,324.915 281.270,324.399 280.400 C 324.052 279.814,319.502 271.575,317.109 267.200 C 315.692 264.609,308.915 252.470,308.399 251.600 C 308.015 250.952,303.201 242.230,300.893 238.000 C 300.113 236.570,296.513 230.090,292.895 223.600 C 289.276 217.110,285.676 210.630,284.895 209.200 C 284.113 207.770,280.513 201.290,276.895 194.800 C 273.276 188.310,269.676 181.830,268.895 180.400 C 268.113 178.970,264.513 172.490,260.895 166.000 C 257.276 159.510,253.676 153.030,252.895 151.600 C 252.113 150.170,248.513 143.690,244.895 137.200 C 241.276 130.710,237.676 124.230,236.895 122.800 C 236.113 121.370,232.513 114.890,228.895 108.400 C 225.276 101.910,221.676 95.430,220.895 94.000 C 220.113 92.570,216.513 86.090,212.895 79.600 C 209.276 73.110,205.775 66.810,205.114 65.600 C 201.615 59.193,200.225 56.800,200.000 56.800 C 199.863 56.800,198.927 58.285,197.919 60.100 M203.156 87.626 C 204.530 89.485,204.475 103.811,203.086 105.758 L 202.200 107.000 202.093 141.323 L 201.987 175.647 203.473 178.323 C 204.291 179.795,205.104 181.060,205.280 181.133 C 205.456 181.207,205.600 181.444,205.600 181.660 C 205.600 182.206,214.485 198.169,214.880 198.333 C 215.056 198.407,215.200 198.651,215.200 198.876 C 215.200 199.101,216.032 200.751,217.048 202.542 C 219.137 206.223,220.013 207.801,222.191 211.800 C 223.030 213.340,225.242 217.300,227.106 220.600 C 228.971 223.900,231.219 227.950,232.101 229.600 C 232.984 231.250,233.925 232.870,234.192 233.200 C 234.460 233.530,234.774 234.070,234.891 234.400 C 235.007 234.730,239.284 242.470,244.394 251.600 C 249.504 260.730,254.409 269.550,255.295 271.200 C 256.181 272.850,257.152 274.484,257.453 274.831 C 257.754 275.179,258.000 275.595,258.000 275.757 C 258.000 277.719,263.110 284.904,265.427 286.200 C 266.823 286.981,268.073 287.795,268.206 288.010 C 268.339 288.224,268.726 288.400,269.066 288.400 C 269.406 288.400,270.341 288.919,271.142 289.554 C 271.944 290.189,272.780 290.728,273.000 290.751 C 273.220 290.774,273.717 291.065,274.105 291.397 C 274.492 291.729,274.888 292.000,274.985 292.000 C 275.081 292.000,275.934 292.495,276.880 293.100 C 279.655 294.875,280.103 295.141,282.072 296.189 C 283.101 296.737,284.057 297.368,284.195 297.592 C 284.334 297.817,284.726 298.000,285.066 298.000 C 285.406 298.000,286.386 298.555,287.242 299.234 C 288.099 299.912,288.806 300.317,288.813 300.134 C 288.820 299.950,289.045 300.079,289.313 300.420 C 289.875 301.135,294.509 304.000,295.103 304.000 C 295.323 304.000,295.712 304.253,295.969 304.563 C 296.226 304.873,297.014 305.418,297.718 305.774 C 298.423 306.131,300.170 307.157,301.600 308.055 C 303.030 308.954,304.439 309.726,304.732 309.772 C 305.025 309.819,305.385 310.035,305.532 310.253 C 305.884 310.773,310.589 313.600,311.103 313.600 C 311.323 313.600,311.712 313.853,311.969 314.163 C 312.226 314.473,313.014 315.018,313.718 315.374 C 314.423 315.731,316.170 316.757,317.600 317.655 C 319.030 318.554,320.420 319.323,320.688 319.366 C 320.957 319.409,321.302 319.569,321.455 319.722 C 321.608 319.875,322.558 320.011,323.567 320.023 C 326.508 320.061,337.933 326.768,338.756 328.940 C 340.109 332.511,335.218 336.302,332.431 333.843 C 332.084 333.536,330.519 332.591,328.954 331.743 C 321.531 327.719,320.789 327.200,319.927 325.424 C 319.193 323.913,316.810 321.824,316.794 322.677 C 316.791 322.855,316.656 322.819,316.494 322.599 C 316.069 322.019,313.202 320.143,311.800 319.527 C 311.140 319.237,310.285 318.730,309.901 318.400 C 309.040 317.661,305.653 315.672,304.700 315.346 C 304.315 315.214,304.000 314.948,304.000 314.753 C 304.000 314.559,303.789 314.400,303.531 314.400 C 303.274 314.400,302.779 314.144,302.431 313.832 C 302.084 313.519,301.530 313.204,301.200 313.132 C 300.870 313.059,300.510 312.909,300.400 312.799 C 299.880 312.276,296.871 310.397,295.800 309.927 C 295.140 309.637,294.285 309.130,293.901 308.800 C 293.040 308.061,289.653 306.072,288.700 305.746 C 288.315 305.614,288.000 305.348,288.000 305.153 C 288.000 304.959,287.789 304.800,287.531 304.800 C 287.274 304.800,286.779 304.544,286.431 304.232 C 286.084 303.919,285.530 303.604,285.200 303.532 C 284.870 303.459,284.510 303.309,284.400 303.199 C 283.877 302.673,280.869 300.797,279.800 300.330 C 279.140 300.042,278.261 299.498,277.846 299.123 C 277.431 298.747,276.531 298.156,275.846 297.809 C 274.234 296.993,273.168 296.323,272.488 295.700 C 272.188 295.425,271.686 295.200,271.371 295.200 C 271.057 295.200,270.800 295.052,270.800 294.871 C 270.800 294.690,270.035 294.143,269.100 293.656 C 267.198 292.664,266.351 292.165,264.602 291.000 C 263.413 290.208,262.733 290.200,200.000 290.200 C 137.267 290.200,136.587 290.208,135.398 291.000 C 133.649 292.165,132.802 292.664,130.900 293.656 C 129.965 294.143,129.200 294.690,129.200 294.871 C 129.200 295.052,128.943 295.200,128.629 295.200 C 128.314 295.200,127.812 295.425,127.512 295.700 C 126.832 296.323,125.766 296.993,124.154 297.809 C 123.469 298.156,122.569 298.747,122.154 299.123 C 121.739 299.498,120.860 300.042,120.200 300.330 C 119.131 300.797,116.123 302.673,115.600 303.199 C 115.490 303.309,115.130 303.459,114.800 303.532 C 114.470 303.604,113.916 303.919,113.569 304.232 C 113.221 304.544,112.726 304.800,112.469 304.800 C 112.211 304.800,112.000 304.959,112.000 305.153 C 112.000 305.348,111.685 305.614,111.300 305.746 C 110.347 306.072,106.960 308.061,106.099 308.800 C 105.715 309.130,104.860 309.637,104.200 309.927 C 103.129 310.397,100.120 312.276,99.600 312.799 C 99.490 312.909,99.130 313.059,98.800 313.132 C 98.470 313.204,97.916 313.519,97.569 313.832 C 97.221 314.144,96.726 314.400,96.469 314.400 C 96.211 314.400,96.000 314.559,96.000 314.753 C 96.000 314.948,95.685 315.214,95.300 315.346 C 94.347 315.672,90.960 317.661,90.099 318.400 C 89.715 318.730,88.860 319.237,88.200 319.527 C 87.129 319.997,84.120 321.876,83.600 322.399 C 83.490 322.509,83.162 322.649,82.871 322.710 C 81.639 322.965,80.288 324.248,79.394 326.012 C 78.454 327.868,77.907 328.311,73.600 330.714 C 72.610 331.266,70.411 332.501,68.714 333.459 C 64.099 336.063,62.346 335.900,60.631 332.711 C 59.925 331.399,59.910 331.151,60.444 329.740 C 61.275 327.547,72.694 320.861,75.671 320.823 C 76.879 320.808,77.786 320.557,78.228 320.115 C 78.604 319.739,79.112 319.398,79.356 319.359 C 79.600 319.320,80.970 318.554,82.400 317.655 C 83.830 316.757,85.577 315.731,86.282 315.374 C 86.986 315.018,87.774 314.473,88.031 314.163 C 88.288 313.853,88.677 313.600,88.897 313.600 C 89.411 313.600,94.116 310.773,94.468 310.253 C 94.615 310.035,94.975 309.819,95.268 309.772 C 95.561 309.726,96.970 308.954,98.400 308.055 C 99.830 307.157,101.577 306.131,102.282 305.774 C 102.986 305.418,103.774 304.873,104.031 304.563 C 104.288 304.253,104.677 304.000,104.897 304.000 C 105.491 304.000,110.125 301.135,110.687 300.420 C 110.955 300.079,111.180 299.950,111.187 300.134 C 111.194 300.317,111.901 299.912,112.758 299.234 C 113.614 298.555,114.594 298.000,114.934 298.000 C 115.274 298.000,115.666 297.817,115.805 297.592 C 115.943 297.368,116.899 296.737,117.928 296.189 C 119.897 295.141,120.345 294.875,123.120 293.100 C 124.066 292.495,124.919 292.000,125.015 292.000 C 125.112 292.000,125.559 291.685,126.008 291.300 C 126.458 290.915,126.955 290.624,127.113 290.654 C 127.271 290.684,128.056 290.189,128.858 289.554 C 129.659 288.919,130.594 288.400,130.934 288.400 C 131.274 288.400,131.661 288.224,131.794 288.010 C 131.927 287.795,133.177 286.981,134.573 286.200 C 137.292 284.680,137.373 284.559,145.116 270.400 C 145.777 269.190,150.447 260.820,155.492 251.800 C 160.537 242.780,164.920 234.916,165.232 234.324 C 165.545 233.733,166.489 232.037,167.330 230.556 C 168.172 229.075,168.884 227.547,168.913 227.159 C 168.942 226.772,169.078 226.524,169.214 226.609 C 169.628 226.865,178.443 210.793,178.149 210.318 C 177.999 210.075,178.047 209.982,178.254 210.110 C 178.462 210.239,182.993 202.531,188.323 192.982 L 198.013 175.621 197.907 141.310 L 197.800 107.000 196.908 105.800 C 196.061 104.659,196.015 104.212,195.977 96.726 C 195.929 87.026,196.173 86.400,200.000 86.400 C 202.046 86.400,202.331 86.511,203.156 87.626 M198.400 196.796 C 191.837 198.020,189.154 206.104,193.669 211.049 C 194.584 212.051,195.358 210.475,186.102 226.465 C 182.748 232.259,179.992 237.180,179.978 237.400 C 179.963 237.620,179.632 238.160,179.241 238.600 C 178.850 239.040,175.156 245.271,171.031 252.448 L 163.532 265.495 161.416 265.514 C 152.526 265.594,149.844 277.603,157.800 281.702 C 162.714 284.234,170.000 280.497,170.000 275.443 C 170.000 273.934,168.856 273.989,200.000 273.989 C 231.144 273.989,230.000 273.934,230.000 275.443 C 230.000 280.497,237.286 284.234,242.200 281.702 C 250.177 277.592,247.471 265.594,238.550 265.514 L 236.398 265.495 234.786 262.647 C 233.899 261.081,233.004 259.530,232.796 259.200 C 232.588 258.870,226.368 248.098,218.974 235.263 L 205.530 211.926 206.335 211.063 C 206.778 210.588,207.199 209.930,207.270 209.600 C 207.342 209.270,207.548 208.891,207.729 208.759 C 208.288 208.348,208.747 205.588,208.511 204.056 C 207.746 199.100,203.271 195.887,198.400 196.796 " stroke="none" fill="#d4d4d4" fill-rule="evenodd"></path><path id="path1" d="M199.488 56.514 C 199.373 56.814,199.587 57.029,200.000 57.029 C 200.413 57.029,200.627 56.814,200.512 56.514 C 200.403 56.231,200.173 56.000,200.000 56.000 C 199.827 56.000,199.597 56.231,199.488 56.514 M198.000 59.200 C 197.551 60.080,197.274 60.800,197.384 60.800 C 197.494 60.800,197.951 60.080,198.400 59.200 C 198.849 58.320,199.126 57.600,199.016 57.600 C 198.906 57.600,198.449 58.320,198.000 59.200 M201.600 59.200 C 202.049 60.080,202.506 60.800,202.616 60.800 C 202.726 60.800,202.449 60.080,202.000 59.200 C 201.551 58.320,201.094 57.600,200.984 57.600 C 200.874 57.600,201.151 58.320,201.600 59.200 M196.000 62.800 C 195.551 63.680,195.274 64.400,195.384 64.400 C 195.494 64.400,195.951 63.680,196.400 62.800 C 196.849 61.920,197.126 61.200,197.016 61.200 C 196.906 61.200,196.449 61.920,196.000 62.800 M203.600 62.800 C 204.049 63.680,204.506 64.400,204.616 64.400 C 204.726 64.400,204.449 63.680,204.000 62.800 C 203.551 61.920,203.094 61.200,202.984 61.200 C 202.874 61.200,203.151 61.920,203.600 62.800 M194.000 66.400 C 193.551 67.280,193.274 68.000,193.384 68.000 C 193.494 68.000,193.951 67.280,194.400 66.400 C 194.849 65.520,195.126 64.800,195.016 64.800 C 194.906 64.800,194.449 65.520,194.000 66.400 M205.600 66.400 C 206.049 67.280,206.506 68.000,206.616 68.000 C 206.726 68.000,206.449 67.280,206.000 66.400 C 205.551 65.520,205.094 64.800,204.984 64.800 C 204.874 64.800,205.151 65.520,205.600 66.400 M192.000 70.000 C 191.551 70.880,191.274 71.600,191.384 71.600 C 191.494 71.600,191.951 70.880,192.400 70.000 C 192.849 69.120,193.126 68.400,193.016 68.400 C 192.906 68.400,192.449 69.120,192.000 70.000 M207.600 70.000 C 208.049 70.880,208.506 71.600,208.616 71.600 C 208.726 71.600,208.449 70.880,208.000 70.000 C 207.551 69.120,207.094 68.400,206.984 68.400 C 206.874 68.400,207.151 69.120,207.600 70.000 M190.000 73.600 C 189.551 74.480,189.274 75.200,189.384 75.200 C 189.494 75.200,189.951 74.480,190.400 73.600 C 190.849 72.720,191.126 72.000,191.016 72.000 C 190.906 72.000,190.449 72.720,190.000 73.600 M209.600 73.600 C 210.049 74.480,210.506 75.200,210.616 75.200 C 210.726 75.200,210.449 74.480,210.000 73.600 C 209.551 72.720,209.094 72.000,208.984 72.000 C 208.874 72.000,209.151 72.720,209.600 73.600 M188.000 77.200 C 187.551 78.080,187.274 78.800,187.384 78.800 C 187.494 78.800,187.951 78.080,188.400 77.200 C 188.849 76.320,189.126 75.600,189.016 75.600 C 188.906 75.600,188.449 76.320,188.000 77.200 M211.600 77.200 C 212.049 78.080,212.506 78.800,212.616 78.800 C 212.726 78.800,212.449 78.080,212.000 77.200 C 211.551 76.320,211.094 75.600,210.984 75.600 C 210.874 75.600,211.151 76.320,211.600 77.200 M186.000 80.800 C 185.551 81.680,185.274 82.400,185.384 82.400 C 185.494 82.400,185.951 81.680,186.400 80.800 C 186.849 79.920,187.126 79.200,187.016 79.200 C 186.906 79.200,186.449 79.920,186.000 80.800 M213.600 80.800 C 214.049 81.680,214.506 82.400,214.616 82.400 C 214.726 82.400,214.449 81.680,214.000 80.800 C 213.551 79.920,213.094 79.200,212.984 79.200 C 212.874 79.200,213.151 79.920,213.600 80.800 M184.000 84.400 C 183.551 85.280,183.274 86.000,183.384 86.000 C 183.494 86.000,183.951 85.280,184.400 84.400 C 184.849 83.520,185.126 82.800,185.016 82.800 C 184.906 82.800,184.449 83.520,184.000 84.400 M215.400 84.000 C 215.741 84.660,216.111 85.200,216.221 85.200 C 216.331 85.200,216.141 84.660,215.800 84.000 C 215.459 83.340,215.089 82.800,214.979 82.800 C 214.869 82.800,215.059 83.340,215.400 84.000 M182.000 88.000 C 181.551 88.880,181.274 89.600,181.384 89.600 C 181.494 89.600,181.951 88.880,182.400 88.000 C 182.849 87.120,183.126 86.400,183.016 86.400 C 182.906 86.400,182.449 87.120,182.000 88.000 M196.875 87.584 C 196.394 88.235,196.000 88.900,196.000 89.062 C 196.000 89.223,196.450 88.745,197.000 88.000 C 197.550 87.255,198.000 86.590,198.000 86.522 C 198.000 86.195,197.675 86.502,196.875 87.584 M202.002 86.422 C 202.001 86.545,202.450 87.255,203.000 88.000 C 203.550 88.745,203.994 89.185,203.986 88.978 C 203.970 88.576,202.005 86.045,202.002 86.422 M217.600 88.000 C 218.049 88.880,218.506 89.600,218.616 89.600 C 218.726 89.600,218.449 88.880,218.000 88.000 C 217.551 87.120,217.094 86.400,216.984 86.400 C 216.874 86.400,217.151 87.120,217.600 88.000 M180.000 91.600 C 179.551 92.480,179.274 93.200,179.384 93.200 C 179.494 93.200,179.951 92.480,180.400 91.600 C 180.849 90.720,181.126 90.000,181.016 90.000 C 180.906 90.000,180.449 90.720,180.000 91.600 M219.600 91.600 C 220.049 92.480,220.506 93.200,220.616 93.200 C 220.726 93.200,220.449 92.480,220.000 91.600 C 219.551 90.720,219.094 90.000,218.984 90.000 C 218.874 90.000,219.151 90.720,219.600 91.600 M178.000 95.200 C 177.551 96.080,177.274 96.800,177.384 96.800 C 177.494 96.800,177.951 96.080,178.400 95.200 C 178.849 94.320,179.126 93.600,179.016 93.600 C 178.906 93.600,178.449 94.320,178.000 95.200 M221.600 95.200 C 222.049 96.080,222.506 96.800,222.616 96.800 C 222.726 96.800,222.449 96.080,222.000 95.200 C 221.551 94.320,221.094 93.600,220.984 93.600 C 220.874 93.600,221.151 94.320,221.600 95.200 M176.000 98.800 C 175.551 99.680,175.274 100.400,175.384 100.400 C 175.494 100.400,175.951 99.680,176.400 98.800 C 176.849 97.920,177.126 97.200,177.016 97.200 C 176.906 97.200,176.449 97.920,176.000 98.800 M223.600 98.800 C 224.049 99.680,224.506 100.400,224.616 100.400 C 224.726 100.400,224.449 99.680,224.000 98.800 C 223.551 97.920,223.094 97.200,222.984 97.200 C 222.874 97.200,223.151 97.920,223.600 98.800 M174.000 102.400 C 173.551 103.280,173.274 104.000,173.384 104.000 C 173.494 104.000,173.951 103.280,174.400 102.400 C 174.849 101.520,175.126 100.800,175.016 100.800 C 174.906 100.800,174.449 101.520,174.000 102.400 M225.600 102.400 C 226.049 103.280,226.506 104.000,226.616 104.000 C 226.726 104.000,226.449 103.280,226.000 102.400 C 225.551 101.520,225.094 100.800,224.984 100.800 C 224.874 100.800,225.151 101.520,225.600 102.400 M196.349 104.600 C 196.565 105.040,197.034 105.760,197.393 106.200 L 198.044 107.000 197.651 106.200 C 197.435 105.760,196.966 105.040,196.607 104.600 L 195.956 103.800 196.349 104.600 M203.353 104.500 C 201.976 106.836,201.886 107.035,202.587 106.200 C 203.400 105.232,204.100 104.000,203.838 104.000 C 203.733 104.000,203.515 104.225,203.353 104.500 M172.000 106.000 C 171.551 106.880,171.274 107.600,171.384 107.600 C 171.494 107.600,171.951 106.880,172.400 106.000 C 172.849 105.120,173.126 104.400,173.016 104.400 C 172.906 104.400,172.449 105.120,172.000 106.000 M227.600 106.000 C 228.049 106.880,228.506 107.600,228.616 107.600 C 228.726 107.600,228.449 106.880,228.000 106.000 C 227.551 105.120,227.094 104.400,226.984 104.400 C 226.874 104.400,227.151 105.120,227.600 106.000 M170.000 109.600 C 169.551 110.480,169.274 111.200,169.384 111.200 C 169.494 111.200,169.951 110.480,170.400 109.600 C 170.849 108.720,171.126 108.000,171.016 108.000 C 170.906 108.000,170.449 108.720,170.000 109.600 M229.600 109.600 C 230.049 110.480,230.506 111.200,230.616 111.200 C 230.726 111.200,230.449 110.480,230.000 109.600 C 229.551 108.720,229.094 108.000,228.984 108.000 C 228.874 108.000,229.151 108.720,229.600 109.600 M168.000 113.200 C 167.551 114.080,167.274 114.800,167.384 114.800 C 167.494 114.800,167.951 114.080,168.400 113.200 C 168.849 112.320,169.126 111.600,169.016 111.600 C 168.906 111.600,168.449 112.320,168.000 113.200 M231.400 112.800 C 231.741 113.460,232.111 114.000,232.221 114.000 C 232.331 114.000,232.141 113.460,231.800 112.800 C 231.459 112.140,231.089 111.600,230.979 111.600 C 230.869 111.600,231.059 112.140,231.400 112.800 M166.000 116.800 C 165.551 117.680,165.274 118.400,165.384 118.400 C 165.494 118.400,165.951 117.680,166.400 116.800 C 166.849 115.920,167.126 115.200,167.016 115.200 C 166.906 115.200,166.449 115.920,166.000 116.800 M233.600 116.800 C 234.049 117.680,234.506 118.400,234.616 118.400 C 234.726 118.400,234.449 117.680,234.000 116.800 C 233.551 115.920,233.094 115.200,232.984 115.200 C 232.874 115.200,233.151 115.920,233.600 116.800 M164.000 120.400 C 163.551 121.280,163.274 122.000,163.384 122.000 C 163.494 122.000,163.951 121.280,164.400 120.400 C 164.849 119.520,165.126 118.800,165.016 118.800 C 164.906 118.800,164.449 119.520,164.000 120.400 M235.600 120.400 C 236.049 121.280,236.506 122.000,236.616 122.000 C 236.726 122.000,236.449 121.280,236.000 120.400 C 235.551 119.520,235.094 118.800,234.984 118.800 C 234.874 118.800,235.151 119.520,235.600 120.400 M162.000 124.000 C 161.551 124.880,161.274 125.600,161.384 125.600 C 161.494 125.600,161.951 124.880,162.400 124.000 C 162.849 123.120,163.126 122.400,163.016 122.400 C 162.906 122.400,162.449 123.120,162.000 124.000 M237.600 124.000 C 238.049 124.880,238.506 125.600,238.616 125.600 C 238.726 125.600,238.449 124.880,238.000 124.000 C 237.551 123.120,237.094 122.400,236.984 122.400 C 236.874 122.400,237.151 123.120,237.600 124.000 M160.000 127.600 C 159.551 128.480,159.274 129.200,159.384 129.200 C 159.494 129.200,159.951 128.480,160.400 127.600 C 160.849 126.720,161.126 126.000,161.016 126.000 C 160.906 126.000,160.449 126.720,160.000 127.600 M239.600 127.600 C 240.049 128.480,240.506 129.200,240.616 129.200 C 240.726 129.200,240.449 128.480,240.000 127.600 C 239.551 126.720,239.094 126.000,238.984 126.000 C 238.874 126.000,239.151 126.720,239.600 127.600 M158.000 131.200 C 157.551 132.080,157.274 132.800,157.384 132.800 C 157.494 132.800,157.951 132.080,158.400 131.200 C 158.849 130.320,159.126 129.600,159.016 129.600 C 158.906 129.600,158.449 130.320,158.000 131.200 M241.600 131.200 C 242.049 132.080,242.506 132.800,242.616 132.800 C 242.726 132.800,242.449 132.080,242.000 131.200 C 241.551 130.320,241.094 129.600,240.984 129.600 C 240.874 129.600,241.151 130.320,241.600 131.200 M156.000 134.800 C 155.551 135.680,155.274 136.400,155.384 136.400 C 155.494 136.400,155.951 135.680,156.400 134.800 C 156.849 133.920,157.126 133.200,157.016 133.200 C 156.906 133.200,156.449 133.920,156.000 134.800 M243.600 134.800 C 244.049 135.680,244.506 136.400,244.616 136.400 C 244.726 136.400,244.449 135.680,244.000 134.800 C 243.551 133.920,243.094 133.200,242.984 133.200 C 242.874 133.200,243.151 133.920,243.600 134.800 M154.000 138.400 C 153.551 139.280,153.274 140.000,153.384 140.000 C 153.494 140.000,153.951 139.280,154.400 138.400 C 154.849 137.520,155.126 136.800,155.016 136.800 C 154.906 136.800,154.449 137.520,154.000 138.400 M245.600 138.400 C 246.049 139.280,246.506 140.000,246.616 140.000 C 246.726 140.000,246.449 139.280,246.000 138.400 C 245.551 137.520,245.094 136.800,244.984 136.800 C 244.874 136.800,245.151 137.520,245.600 138.400 M152.000 142.000 C 151.551 142.880,151.274 143.600,151.384 143.600 C 151.494 143.600,151.951 142.880,152.400 142.000 C 152.849 141.120,153.126 140.400,153.016 140.400 C 152.906 140.400,152.449 141.120,152.000 142.000 M247.400 141.600 C 247.741 142.260,248.111 142.800,248.221 142.800 C 248.331 142.800,248.141 142.260,247.800 141.600 C 247.459 140.940,247.089 140.400,246.979 140.400 C 246.869 140.400,247.059 140.940,247.400 141.600 M150.000 145.600 C 149.551 146.480,149.274 147.200,149.384 147.200 C 149.494 147.200,149.951 146.480,150.400 145.600 C 150.849 144.720,151.126 144.000,151.016 144.000 C 150.906 144.000,150.449 144.720,150.000 145.600 M249.600 145.600 C 250.049 146.480,250.506 147.200,250.616 147.200 C 250.726 147.200,250.449 146.480,250.000 145.600 C 249.551 144.720,249.094 144.000,248.984 144.000 C 248.874 144.000,249.151 144.720,249.600 145.600 M148.000 149.200 C 147.551 150.080,147.274 150.800,147.384 150.800 C 147.494 150.800,147.951 150.080,148.400 149.200 C 148.849 148.320,149.126 147.600,149.016 147.600 C 148.906 147.600,148.449 148.320,148.000 149.200 M251.600 149.200 C 252.049 150.080,252.506 150.800,252.616 150.800 C 252.726 150.800,252.449 150.080,252.000 149.200 C 251.551 148.320,251.094 147.600,250.984 147.600 C 250.874 147.600,251.151 148.320,251.600 149.200 M146.000 152.800 C 145.551 153.680,145.274 154.400,145.384 154.400 C 145.494 154.400,145.951 153.680,146.400 152.800 C 146.849 151.920,147.126 151.200,147.016 151.200 C 146.906 151.200,146.449 151.920,146.000 152.800 M253.600 152.800 C 254.049 153.680,254.506 154.400,254.616 154.400 C 254.726 154.400,254.449 153.680,254.000 152.800 C 253.551 151.920,253.094 151.200,252.984 151.200 C 252.874 151.200,253.151 151.920,253.600 152.800 M144.000 156.400 C 143.551 157.280,143.274 158.000,143.384 158.000 C 143.494 158.000,143.951 157.280,144.400 156.400 C 144.849 155.520,145.126 154.800,145.016 154.800 C 144.906 154.800,144.449 155.520,144.000 156.400 M255.600 156.400 C 256.049 157.280,256.506 158.000,256.616 158.000 C 256.726 158.000,256.449 157.280,256.000 156.400 C 255.551 155.520,255.094 154.800,254.984 154.800 C 254.874 154.800,255.151 155.520,255.600 156.400 M142.000 160.000 C 141.551 160.880,141.274 161.600,141.384 161.600 C 141.494 161.600,141.951 160.880,142.400 160.000 C 142.849 159.120,143.126 158.400,143.016 158.400 C 142.906 158.400,142.449 159.120,142.000 160.000 M257.600 160.000 C 258.049 160.880,258.506 161.600,258.616 161.600 C 258.726 161.600,258.449 160.880,258.000 160.000 C 257.551 159.120,257.094 158.400,256.984 158.400 C 256.874 158.400,257.151 159.120,257.600 160.000 M140.000 163.600 C 139.551 164.480,139.274 165.200,139.384 165.200 C 139.494 165.200,139.951 164.480,140.400 163.600 C 140.849 162.720,141.126 162.000,141.016 162.000 C 140.906 162.000,140.449 162.720,140.000 163.600 M259.600 163.600 C 260.049 164.480,260.506 165.200,260.616 165.200 C 260.726 165.200,260.449 164.480,260.000 163.600 C 259.551 162.720,259.094 162.000,258.984 162.000 C 258.874 162.000,259.151 162.720,259.600 163.600 M138.000 167.200 C 137.551 168.080,137.274 168.800,137.384 168.800 C 137.494 168.800,137.951 168.080,138.400 167.200 C 138.849 166.320,139.126 165.600,139.016 165.600 C 138.906 165.600,138.449 166.320,138.000 167.200 M261.600 167.200 C 262.049 168.080,262.506 168.800,262.616 168.800 C 262.726 168.800,262.449 168.080,262.000 167.200 C 261.551 166.320,261.094 165.600,260.984 165.600 C 260.874 165.600,261.151 166.320,261.600 167.200 M136.000 170.800 C 135.551 171.680,135.274 172.400,135.384 172.400 C 135.494 172.400,135.951 171.680,136.400 170.800 C 136.849 169.920,137.126 169.200,137.016 169.200 C 136.906 169.200,136.449 169.920,136.000 170.800 M263.400 170.400 C 263.741 171.060,264.111 171.600,264.221 171.600 C 264.331 171.600,264.141 171.060,263.800 170.400 C 263.459 169.740,263.089 169.200,262.979 169.200 C 262.869 169.200,263.059 169.740,263.400 170.400 M134.000 174.400 C 133.551 175.280,133.274 176.000,133.384 176.000 C 133.494 176.000,133.951 175.280,134.400 174.400 C 134.849 173.520,135.126 172.800,135.016 172.800 C 134.906 172.800,134.449 173.520,134.000 174.400 M265.600 174.400 C 266.049 175.280,266.506 176.000,266.616 176.000 C 266.726 176.000,266.449 175.280,266.000 174.400 C 265.551 173.520,265.094 172.800,264.984 172.800 C 264.874 172.800,265.151 173.520,265.600 174.400 M132.000 178.000 C 131.551 178.880,131.274 179.600,131.384 179.600 C 131.494 179.600,131.951 178.880,132.400 178.000 C 132.849 177.120,133.126 176.400,133.016 176.400 C 132.906 176.400,132.449 177.120,132.000 178.000 M267.600 178.000 C 268.049 178.880,268.506 179.600,268.616 179.600 C 268.726 179.600,268.449 178.880,268.000 178.000 C 267.551 177.120,267.094 176.400,266.984 176.400 C 266.874 176.400,267.151 177.120,267.600 178.000 M195.600 180.000 C 195.151 180.880,194.874 181.600,194.984 181.600 C 195.094 181.600,195.551 180.880,196.000 180.000 C 196.449 179.120,196.726 178.400,196.616 178.400 C 196.506 178.400,196.049 179.120,195.600 180.000 M204.000 180.000 C 204.449 180.880,204.906 181.600,205.016 181.600 C 205.126 181.600,204.849 180.880,204.400 180.000 C 203.951 179.120,203.494 178.400,203.384 178.400 C 203.274 178.400,203.551 179.120,204.000 180.000 M130.000 181.600 C 129.551 182.480,129.274 183.200,129.384 183.200 C 129.494 183.200,129.951 182.480,130.400 181.600 C 130.849 180.720,131.126 180.000,131.016 180.000 C 130.906 180.000,130.449 180.720,130.000 181.600 M269.600 181.600 C 270.049 182.480,270.506 183.200,270.616 183.200 C 270.726 183.200,270.449 182.480,270.000 181.600 C 269.551 180.720,269.094 180.000,268.984 180.000 C 268.874 180.000,269.151 180.720,269.600 181.600 M193.800 183.200 C 193.459 183.860,193.269 184.400,193.379 184.400 C 193.489 184.400,193.859 183.860,194.200 183.200 C 194.541 182.540,194.731 182.000,194.621 182.000 C 194.511 182.000,194.141 182.540,193.800 183.200 M206.000 183.600 C 206.449 184.480,206.906 185.200,207.016 185.200 C 207.126 185.200,206.849 184.480,206.400 183.600 C 205.951 182.720,205.494 182.000,205.384 182.000 C 205.274 182.000,205.551 182.720,206.000 183.600 M128.000 185.200 C 127.551 186.080,127.274 186.800,127.384 186.800 C 127.494 186.800,127.951 186.080,128.400 185.200 C 128.849 184.320,129.126 183.600,129.016 183.600 C 128.906 183.600,128.449 184.320,128.000 185.200 M271.600 185.200 C 272.049 186.080,272.506 186.800,272.616 186.800 C 272.726 186.800,272.449 186.080,272.000 185.200 C 271.551 184.320,271.094 183.600,270.984 183.600 C 270.874 183.600,271.151 184.320,271.600 185.200 M191.600 187.200 C 191.151 188.080,190.874 188.800,190.984 188.800 C 191.094 188.800,191.551 188.080,192.000 187.200 C 192.449 186.320,192.726 185.600,192.616 185.600 C 192.506 185.600,192.049 186.320,191.600 187.200 M207.800 186.800 C 208.141 187.460,208.511 188.000,208.621 188.000 C 208.731 188.000,208.541 187.460,208.200 186.800 C 207.859 186.140,207.489 185.600,207.379 185.600 C 207.269 185.600,207.459 186.140,207.800 186.800 M126.000 188.800 C 125.551 189.680,125.274 190.400,125.384 190.400 C 125.494 190.400,125.951 189.680,126.400 188.800 C 126.849 187.920,127.126 187.200,127.016 187.200 C 126.906 187.200,126.449 187.920,126.000 188.800 M273.600 188.800 C 274.049 189.680,274.506 190.400,274.616 190.400 C 274.726 190.400,274.449 189.680,274.000 188.800 C 273.551 187.920,273.094 187.200,272.984 187.200 C 272.874 187.200,273.151 187.920,273.600 188.800 M189.800 190.400 C 189.459 191.060,189.269 191.600,189.379 191.600 C 189.489 191.600,189.859 191.060,190.200 190.400 C 190.541 189.740,190.731 189.200,190.621 189.200 C 190.511 189.200,190.141 189.740,189.800 190.400 M209.800 190.400 C 210.141 191.060,210.511 191.600,210.621 191.600 C 210.731 191.600,210.541 191.060,210.200 190.400 C 209.859 189.740,209.489 189.200,209.379 189.200 C 209.269 189.200,209.459 189.740,209.800 190.400 M124.000 192.400 C 123.551 193.280,123.274 194.000,123.384 194.000 C 123.494 194.000,123.951 193.280,124.400 192.400 C 124.849 191.520,125.126 190.800,125.016 190.800 C 124.906 190.800,124.449 191.520,124.000 192.400 M275.600 192.400 C 276.049 193.280,276.506 194.000,276.616 194.000 C 276.726 194.000,276.449 193.280,276.000 192.400 C 275.551 191.520,275.094 190.800,274.984 190.800 C 274.874 190.800,275.151 191.520,275.600 192.400 M188.000 193.600 C 187.551 194.480,187.274 195.200,187.384 195.200 C 187.494 195.200,187.951 194.480,188.400 193.600 C 188.849 192.720,189.126 192.000,189.016 192.000 C 188.906 192.000,188.449 192.720,188.000 193.600 M211.600 193.600 C 212.049 194.480,212.506 195.200,212.616 195.200 C 212.726 195.200,212.449 194.480,212.000 193.600 C 211.551 192.720,211.094 192.000,210.984 192.000 C 210.874 192.000,211.151 192.720,211.600 193.600 M122.000 196.000 C 121.551 196.880,121.274 197.600,121.384 197.600 C 121.494 197.600,121.951 196.880,122.400 196.000 C 122.849 195.120,123.126 194.400,123.016 194.400 C 122.906 194.400,122.449 195.120,122.000 196.000 M277.600 196.000 C 278.049 196.880,278.506 197.600,278.616 197.600 C 278.726 197.600,278.449 196.880,278.000 196.000 C 277.551 195.120,277.094 194.400,276.984 194.400 C 276.874 194.400,277.151 195.120,277.600 196.000 M186.000 197.200 C 185.551 198.080,185.274 198.800,185.384 198.800 C 185.494 198.800,185.951 198.080,186.400 197.200 C 186.849 196.320,187.126 195.600,187.016 195.600 C 186.906 195.600,186.449 196.320,186.000 197.200 M213.600 197.200 C 214.049 198.080,214.506 198.800,214.616 198.800 C 214.726 198.800,214.449 198.080,214.000 197.200 C 213.551 196.320,213.094 195.600,212.984 195.600 C 212.874 195.600,213.151 196.320,213.600 197.200 M195.800 197.266 C 193.917 198.305,191.149 201.683,191.717 202.250 C 191.813 202.347,192.110 201.901,192.375 201.260 C 192.936 199.906,194.490 198.364,196.200 197.464 C 196.860 197.116,197.220 196.830,197.000 196.828 C 196.780 196.826,196.240 197.023,195.800 197.266 M203.800 197.464 C 205.510 198.364,207.064 199.906,207.625 201.260 C 207.890 201.901,208.188 202.345,208.286 202.247 C 209.107 201.427,204.474 196.738,202.920 196.816 C 202.744 196.825,203.140 197.116,203.800 197.464 M120.200 199.200 C 119.859 199.860,119.669 200.400,119.779 200.400 C 119.889 200.400,120.259 199.860,120.600 199.200 C 120.941 198.540,121.131 198.000,121.021 198.000 C 120.911 198.000,120.541 198.540,120.200 199.200 M279.400 199.200 C 279.741 199.860,280.111 200.400,280.221 200.400 C 280.331 200.400,280.141 199.860,279.800 199.200 C 279.459 198.540,279.089 198.000,278.979 198.000 C 278.869 198.000,279.059 198.540,279.400 199.200 M184.000 200.800 C 183.551 201.680,183.274 202.400,183.384 202.400 C 183.494 202.400,183.951 201.680,184.400 200.800 C 184.849 199.920,185.126 199.200,185.016 199.200 C 184.906 199.200,184.449 199.920,184.000 200.800 M215.600 200.800 C 216.049 201.680,216.506 202.400,216.616 202.400 C 216.726 202.400,216.449 201.680,216.000 200.800 C 215.551 199.920,215.094 199.200,214.984 199.200 C 214.874 199.200,215.151 199.920,215.600 200.800 M118.000 203.200 C 117.551 204.080,117.274 204.800,117.384 204.800 C 117.494 204.800,117.951 204.080,118.400 203.200 C 118.849 202.320,119.126 201.600,119.016 201.600 C 118.906 201.600,118.449 202.320,118.000 203.200 M281.600 203.200 C 282.049 204.080,282.506 204.800,282.616 204.800 C 282.726 204.800,282.449 204.080,282.000 203.200 C 281.551 202.320,281.094 201.600,280.984 201.600 C 280.874 201.600,281.151 202.320,281.600 203.200 M182.000 204.400 C 181.551 205.280,181.274 206.000,181.384 206.000 C 181.494 206.000,181.951 205.280,182.400 204.400 C 182.849 203.520,183.126 202.800,183.016 202.800 C 182.906 202.800,182.449 203.520,182.000 204.400 M217.600 204.400 C 218.049 205.280,218.506 206.000,218.616 206.000 C 218.726 206.000,218.449 205.280,218.000 204.400 C 217.551 203.520,217.094 202.800,216.984 202.800 C 216.874 202.800,217.151 203.520,217.600 204.400 M116.000 206.800 C 115.551 207.680,115.274 208.400,115.384 208.400 C 115.494 208.400,115.951 207.680,116.400 206.800 C 116.849 205.920,117.126 205.200,117.016 205.200 C 116.906 205.200,116.449 205.920,116.000 206.800 M283.600 206.800 C 284.049 207.680,284.506 208.400,284.616 208.400 C 284.726 208.400,284.449 207.680,284.000 206.800 C 283.551 205.920,283.094 205.200,282.984 205.200 C 282.874 205.200,283.151 205.920,283.600 206.800 M180.000 208.000 C 179.551 208.880,179.274 209.600,179.384 209.600 C 179.494 209.600,179.951 208.880,180.400 208.000 C 180.849 207.120,181.126 206.400,181.016 206.400 C 180.906 206.400,180.449 207.120,180.000 208.000 M219.400 207.600 C 219.741 208.260,220.111 208.800,220.221 208.800 C 220.331 208.800,220.141 208.260,219.800 207.600 C 219.459 206.940,219.089 206.400,218.979 206.400 C 218.869 206.400,219.059 206.940,219.400 207.600 M191.616 208.126 C 191.590 208.647,192.432 210.125,193.292 211.070 C 193.761 211.586,193.961 212.156,193.783 212.470 C 193.543 212.894,193.589 212.901,194.016 212.505 C 194.457 212.096,194.407 211.854,193.723 211.105 C 193.269 210.607,192.613 209.660,192.265 209.000 C 191.917 208.340,191.625 207.947,191.616 208.126 M207.809 208.772 C 207.664 209.230,207.082 210.154,206.516 210.826 C 205.688 211.811,205.588 212.141,206.003 212.524 C 206.405 212.896,206.452 212.885,206.217 212.470 C 206.039 212.156,206.239 211.586,206.708 211.070 C 207.682 210.000,208.533 208.400,208.269 208.136 C 208.161 208.028,207.954 208.314,207.809 208.772 M114.000 210.400 C 113.551 211.280,113.274 212.000,113.384 212.000 C 113.494 212.000,113.951 211.280,114.400 210.400 C 114.849 209.520,115.126 208.800,115.016 208.800 C 114.906 208.800,114.449 209.520,114.000 210.400 M285.600 210.400 C 286.049 211.280,286.506 212.000,286.616 212.000 C 286.726 212.000,286.449 211.280,286.000 210.400 C 285.551 209.520,285.094 208.800,284.984 208.800 C 284.874 208.800,285.151 209.520,285.600 210.400 M178.200 211.200 C 177.859 211.860,177.669 212.400,177.779 212.400 C 177.889 212.400,178.259 211.860,178.600 211.200 C 178.941 210.540,179.131 210.000,179.021 210.000 C 178.911 210.000,178.541 210.540,178.200 211.200 M221.400 211.200 C 221.741 211.860,222.111 212.400,222.221 212.400 C 222.331 212.400,222.141 211.860,221.800 211.200 C 221.459 210.540,221.089 210.000,220.979 210.000 C 220.869 210.000,221.059 210.540,221.400 211.200 M112.000 214.000 C 111.551 214.880,111.274 215.600,111.384 215.600 C 111.494 215.600,111.951 214.880,112.400 214.000 C 112.849 213.120,113.126 212.400,113.016 212.400 C 112.906 212.400,112.449 213.120,112.000 214.000 M287.600 214.000 C 288.049 214.880,288.506 215.600,288.616 215.600 C 288.726 215.600,288.449 214.880,288.000 214.000 C 287.551 213.120,287.094 212.400,286.984 212.400 C 286.874 212.400,287.151 213.120,287.600 214.000 M176.400 214.400 C 175.951 215.280,175.674 216.000,175.784 216.000 C 175.894 216.000,176.351 215.280,176.800 214.400 C 177.249 213.520,177.526 212.800,177.416 212.800 C 177.306 212.800,176.849 213.520,176.400 214.400 M223.200 214.400 C 223.649 215.280,224.106 216.000,224.216 216.000 C 224.326 216.000,224.049 215.280,223.600 214.400 C 223.151 213.520,222.694 212.800,222.584 212.800 C 222.474 212.800,222.751 213.520,223.200 214.400 M192.600 214.400 C 192.259 215.060,192.069 215.600,192.179 215.600 C 192.289 215.600,192.659 215.060,193.000 214.400 C 193.341 213.740,193.531 213.200,193.421 213.200 C 193.311 213.200,192.941 213.740,192.600 214.400 M207.000 214.400 C 207.341 215.060,207.711 215.600,207.821 215.600 C 207.931 215.600,207.741 215.060,207.400 214.400 C 207.059 213.740,206.689 213.200,206.579 213.200 C 206.469 213.200,206.659 213.740,207.000 214.400 M110.000 217.600 C 109.551 218.480,109.274 219.200,109.384 219.200 C 109.494 219.200,109.951 218.480,110.400 217.600 C 110.849 216.720,111.126 216.000,111.016 216.000 C 110.906 216.000,110.449 216.720,110.000 217.600 M191.481 216.300 C 191.389 216.465,190.809 217.500,190.191 218.600 C 189.574 219.700,189.254 220.420,189.481 220.200 C 190.060 219.639,192.122 216.000,191.862 216.000 C 191.744 216.000,191.572 216.135,191.481 216.300 M208.987 217.800 C 209.603 218.900,210.292 219.980,210.519 220.200 C 210.746 220.420,210.428 219.700,209.813 218.600 C 209.197 217.500,208.508 216.420,208.281 216.200 C 208.054 215.980,208.372 216.700,208.987 217.800 M289.600 217.600 C 290.049 218.480,290.506 219.200,290.616 219.200 C 290.726 219.200,290.449 218.480,290.000 217.600 C 289.551 216.720,289.094 216.000,288.984 216.000 C 288.874 216.000,289.151 216.720,289.600 217.600 M174.400 218.000 C 173.951 218.880,173.674 219.600,173.784 219.600 C 173.894 219.600,174.351 218.880,174.800 218.000 C 175.249 217.120,175.526 216.400,175.416 216.400 C 175.306 216.400,174.849 217.120,174.400 218.000 M225.200 218.000 C 225.649 218.880,226.106 219.600,226.216 219.600 C 226.326 219.600,226.049 218.880,225.600 218.000 C 225.151 217.120,224.694 216.400,224.584 216.400 C 224.474 216.400,224.751 217.120,225.200 218.000 M108.000 221.200 C 107.551 222.080,107.274 222.800,107.384 222.800 C 107.494 222.800,107.951 222.080,108.400 221.200 C 108.849 220.320,109.126 219.600,109.016 219.600 C 108.906 219.600,108.449 220.320,108.000 221.200 M291.600 221.200 C 292.049 222.080,292.506 222.800,292.616 222.800 C 292.726 222.800,292.449 222.080,292.000 221.200 C 291.551 220.320,291.094 219.600,290.984 219.600 C 290.874 219.600,291.151 220.320,291.600 221.200 M172.400 221.600 C 171.951 222.480,171.674 223.200,171.784 223.200 C 171.894 223.200,172.351 222.480,172.800 221.600 C 173.249 220.720,173.526 220.000,173.416 220.000 C 173.306 220.000,172.849 220.720,172.400 221.600 M227.200 221.600 C 227.649 222.480,228.106 223.200,228.216 223.200 C 228.326 223.200,228.049 222.480,227.600 221.600 C 227.151 220.720,226.694 220.000,226.584 220.000 C 226.474 220.000,226.751 220.720,227.200 221.600 M188.200 222.000 C 187.859 222.660,187.669 223.200,187.779 223.200 C 187.889 223.200,188.259 222.660,188.600 222.000 C 188.941 221.340,189.131 220.800,189.021 220.800 C 188.911 220.800,188.541 221.340,188.200 222.000 M211.400 222.000 C 211.741 222.660,212.111 223.200,212.221 223.200 C 212.331 223.200,212.141 222.660,211.800 222.000 C 211.459 221.340,211.089 220.800,210.979 220.800 C 210.869 220.800,211.059 221.340,211.400 222.000 M106.000 224.800 C 105.551 225.680,105.274 226.400,105.384 226.400 C 105.494 226.400,105.951 225.680,106.400 224.800 C 106.849 223.920,107.126 223.200,107.016 223.200 C 106.906 223.200,106.449 223.920,106.000 224.800 M293.600 224.800 C 294.049 225.680,294.506 226.400,294.616 226.400 C 294.726 226.400,294.449 225.680,294.000 224.800 C 293.551 223.920,293.094 223.200,292.984 223.200 C 292.874 223.200,293.151 223.920,293.600 224.800 M170.400 225.200 C 169.951 226.080,169.674 226.800,169.784 226.800 C 169.894 226.800,170.351 226.080,170.800 225.200 C 171.249 224.320,171.526 223.600,171.416 223.600 C 171.306 223.600,170.849 224.320,170.400 225.200 M186.600 224.800 C 186.259 225.460,186.069 226.000,186.179 226.000 C 186.289 226.000,186.659 225.460,187.000 224.800 C 187.341 224.140,187.531 223.600,187.421 223.600 C 187.311 223.600,186.941 224.140,186.600 224.800 M213.387 225.400 C 214.003 226.500,214.692 227.580,214.919 227.800 C 215.146 228.020,214.828 227.300,214.213 226.200 C 213.597 225.100,212.908 224.020,212.681 223.800 C 212.454 223.580,212.772 224.300,213.387 225.400 M229.000 224.800 C 229.341 225.460,229.711 226.000,229.821 226.000 C 229.931 226.000,229.741 225.460,229.400 224.800 C 229.059 224.140,228.689 223.600,228.579 223.600 C 228.469 223.600,228.659 224.140,229.000 224.800 M104.200 228.000 C 103.859 228.660,103.669 229.200,103.779 229.200 C 103.889 229.200,104.259 228.660,104.600 228.000 C 104.941 227.340,105.131 226.800,105.021 226.800 C 104.911 226.800,104.541 227.340,104.200 228.000 M295.400 228.000 C 295.741 228.660,296.111 229.200,296.221 229.200 C 296.331 229.200,296.141 228.660,295.800 228.000 C 295.459 227.340,295.089 226.800,294.979 226.800 C 294.869 226.800,295.059 227.340,295.400 228.000 M168.600 228.400 C 168.259 229.060,168.069 229.600,168.179 229.600 C 168.289 229.600,168.659 229.060,169.000 228.400 C 169.341 227.740,169.531 227.200,169.421 227.200 C 169.311 227.200,168.941 227.740,168.600 228.400 M231.000 228.400 C 231.341 229.060,231.711 229.600,231.821 229.600 C 231.931 229.600,231.741 229.060,231.400 228.400 C 231.059 227.740,230.689 227.200,230.579 227.200 C 230.469 227.200,230.659 227.740,231.000 228.400 M183.800 229.600 C 183.459 230.260,183.269 230.800,183.379 230.800 C 183.489 230.800,183.859 230.260,184.200 229.600 C 184.541 228.940,184.731 228.400,184.621 228.400 C 184.511 228.400,184.141 228.940,183.800 229.600 M215.800 229.600 C 216.141 230.260,216.511 230.800,216.621 230.800 C 216.731 230.800,216.541 230.260,216.200 229.600 C 215.859 228.940,215.489 228.400,215.379 228.400 C 215.269 228.400,215.459 228.940,215.800 229.600 M102.000 232.000 C 101.551 232.880,101.274 233.600,101.384 233.600 C 101.494 233.600,101.951 232.880,102.400 232.000 C 102.849 231.120,103.126 230.400,103.016 230.400 C 102.906 230.400,102.449 231.120,102.000 232.000 M297.600 232.000 C 298.049 232.880,298.506 233.600,298.616 233.600 C 298.726 233.600,298.449 232.880,298.000 232.000 C 297.551 231.120,297.094 230.400,296.984 230.400 C 296.874 230.400,297.151 231.120,297.600 232.000 M166.600 232.000 C 166.259 232.660,166.069 233.200,166.179 233.200 C 166.289 233.200,166.659 232.660,167.000 232.000 C 167.341 231.340,167.531 230.800,167.421 230.800 C 167.311 230.800,166.941 231.340,166.600 232.000 M233.000 232.000 C 233.341 232.660,233.711 233.200,233.821 233.200 C 233.931 233.200,233.741 232.660,233.400 232.000 C 233.059 231.340,232.689 230.800,232.579 230.800 C 232.469 230.800,232.659 231.340,233.000 232.000 M182.200 232.400 C 181.859 233.060,181.669 233.600,181.779 233.600 C 181.889 233.600,182.259 233.060,182.600 232.400 C 182.941 231.740,183.131 231.200,183.021 231.200 C 182.911 231.200,182.541 231.740,182.200 232.400 M217.400 232.400 C 217.741 233.060,218.111 233.600,218.221 233.600 C 218.331 233.600,218.141 233.060,217.800 232.400 C 217.459 231.740,217.089 231.200,216.979 231.200 C 216.869 231.200,217.059 231.740,217.400 232.400 M164.800 235.200 C 164.351 236.080,164.074 236.800,164.184 236.800 C 164.294 236.800,164.751 236.080,165.200 235.200 C 165.649 234.320,165.926 233.600,165.816 233.600 C 165.706 233.600,165.249 234.320,164.800 235.200 M234.800 235.200 C 235.249 236.080,235.706 236.800,235.816 236.800 C 235.926 236.800,235.649 236.080,235.200 235.200 C 234.751 234.320,234.294 233.600,234.184 233.600 C 234.074 233.600,234.351 234.320,234.800 235.200 M100.000 235.600 C 99.551 236.480,99.274 237.200,99.384 237.200 C 99.494 237.200,99.951 236.480,100.400 235.600 C 100.849 234.720,101.126 234.000,101.016 234.000 C 100.906 234.000,100.449 234.720,100.000 235.600 M181.081 234.300 C 180.989 234.465,180.409 235.500,179.791 236.600 C 179.174 237.700,178.854 238.420,179.081 238.200 C 179.660 237.639,181.722 234.000,181.462 234.000 C 181.344 234.000,181.172 234.135,181.081 234.300 M219.387 235.800 C 220.003 236.900,220.692 237.980,220.919 238.200 C 221.146 238.420,220.828 237.700,220.213 236.600 C 219.597 235.500,218.908 234.420,218.681 234.200 C 218.454 233.980,218.772 234.700,219.387 235.800 M299.600 235.600 C 300.049 236.480,300.506 237.200,300.616 237.200 C 300.726 237.200,300.449 236.480,300.000 235.600 C 299.551 234.720,299.094 234.000,298.984 234.000 C 298.874 234.000,299.151 234.720,299.600 235.600 M162.800 238.800 C 162.351 239.680,162.074 240.400,162.184 240.400 C 162.294 240.400,162.751 239.680,163.200 238.800 C 163.649 237.920,163.926 237.200,163.816 237.200 C 163.706 237.200,163.249 237.920,162.800 238.800 M236.800 238.800 C 237.249 239.680,237.706 240.400,237.816 240.400 C 237.926 240.400,237.649 239.680,237.200 238.800 C 236.751 237.920,236.294 237.200,236.184 237.200 C 236.074 237.200,236.351 237.920,236.800 238.800 M98.000 239.200 C 97.551 240.080,97.274 240.800,97.384 240.800 C 97.494 240.800,97.951 240.080,98.400 239.200 C 98.849 238.320,99.126 237.600,99.016 237.600 C 98.906 237.600,98.449 238.320,98.000 239.200 M301.600 239.200 C 302.049 240.080,302.506 240.800,302.616 240.800 C 302.726 240.800,302.449 240.080,302.000 239.200 C 301.551 238.320,301.094 237.600,300.984 237.600 C 300.874 237.600,301.151 238.320,301.600 239.200 M177.800 240.000 C 177.459 240.660,177.269 241.200,177.379 241.200 C 177.489 241.200,177.859 240.660,178.200 240.000 C 178.541 239.340,178.731 238.800,178.621 238.800 C 178.511 238.800,178.141 239.340,177.800 240.000 M221.800 240.000 C 222.141 240.660,222.511 241.200,222.621 241.200 C 222.731 241.200,222.541 240.660,222.200 240.000 C 221.859 239.340,221.489 238.800,221.379 238.800 C 221.269 238.800,221.459 239.340,221.800 240.000 M160.800 242.400 C 160.351 243.280,160.074 244.000,160.184 244.000 C 160.294 244.000,160.751 243.280,161.200 242.400 C 161.649 241.520,161.926 240.800,161.816 240.800 C 161.706 240.800,161.249 241.520,160.800 242.400 M238.800 242.400 C 239.249 243.280,239.706 244.000,239.816 244.000 C 239.926 244.000,239.649 243.280,239.200 242.400 C 238.751 241.520,238.294 240.800,238.184 240.800 C 238.074 240.800,238.351 241.520,238.800 242.400 M96.000 242.800 C 95.551 243.680,95.274 244.400,95.384 244.400 C 95.494 244.400,95.951 243.680,96.400 242.800 C 96.849 241.920,97.126 241.200,97.016 241.200 C 96.906 241.200,96.449 241.920,96.000 242.800 M303.600 242.800 C 304.049 243.680,304.506 244.400,304.616 244.400 C 304.726 244.400,304.449 243.680,304.000 242.800 C 303.551 241.920,303.094 241.200,302.984 241.200 C 302.874 241.200,303.151 241.920,303.600 242.800 M176.200 242.800 C 175.859 243.460,175.669 244.000,175.779 244.000 C 175.889 244.000,176.259 243.460,176.600 242.800 C 176.941 242.140,177.131 241.600,177.021 241.600 C 176.911 241.600,176.541 242.140,176.200 242.800 M223.787 243.400 C 224.403 244.500,225.092 245.580,225.319 245.800 C 225.546 246.020,225.228 245.300,224.613 244.200 C 223.997 243.100,223.308 242.020,223.081 241.800 C 222.854 241.580,223.172 242.300,223.787 243.400 M159.000 245.600 C 158.659 246.260,158.469 246.800,158.579 246.800 C 158.689 246.800,159.059 246.260,159.400 245.600 C 159.741 244.940,159.931 244.400,159.821 244.400 C 159.711 244.400,159.341 244.940,159.000 245.600 M240.600 245.600 C 240.941 246.260,241.311 246.800,241.421 246.800 C 241.531 246.800,241.341 246.260,241.000 245.600 C 240.659 244.940,240.289 244.400,240.179 244.400 C 240.069 244.400,240.259 244.940,240.600 245.600 M94.000 246.400 C 93.551 247.280,93.274 248.000,93.384 248.000 C 93.494 248.000,93.951 247.280,94.400 246.400 C 94.849 245.520,95.126 244.800,95.016 244.800 C 94.906 244.800,94.449 245.520,94.000 246.400 M305.600 246.400 C 306.049 247.280,306.506 248.000,306.616 248.000 C 306.726 248.000,306.449 247.280,306.000 246.400 C 305.551 245.520,305.094 244.800,304.984 244.800 C 304.874 244.800,305.151 245.520,305.600 246.400 M173.400 247.600 C 173.059 248.260,172.869 248.800,172.979 248.800 C 173.089 248.800,173.459 248.260,173.800 247.600 C 174.141 246.940,174.331 246.400,174.221 246.400 C 174.111 246.400,173.741 246.940,173.400 247.600 M226.200 247.600 C 226.541 248.260,226.911 248.800,227.021 248.800 C 227.131 248.800,226.941 248.260,226.600 247.600 C 226.259 246.940,225.889 246.400,225.779 246.400 C 225.669 246.400,225.859 246.940,226.200 247.600 M157.000 249.200 C 156.659 249.860,156.469 250.400,156.579 250.400 C 156.689 250.400,157.059 249.860,157.400 249.200 C 157.741 248.540,157.931 248.000,157.821 248.000 C 157.711 248.000,157.341 248.540,157.000 249.200 M242.600 249.200 C 242.941 249.860,243.311 250.400,243.421 250.400 C 243.531 250.400,243.341 249.860,243.000 249.200 C 242.659 248.540,242.289 248.000,242.179 248.000 C 242.069 248.000,242.259 248.540,242.600 249.200 M92.000 250.000 C 91.551 250.880,91.274 251.600,91.384 251.600 C 91.494 251.600,91.951 250.880,92.400 250.000 C 92.849 249.120,93.126 248.400,93.016 248.400 C 92.906 248.400,92.449 249.120,92.000 250.000 M307.600 250.000 C 308.049 250.880,308.506 251.600,308.616 251.600 C 308.726 251.600,308.449 250.880,308.000 250.000 C 307.551 249.120,307.094 248.400,306.984 248.400 C 306.874 248.400,307.151 249.120,307.600 250.000 M171.800 250.400 C 171.459 251.060,171.269 251.600,171.379 251.600 C 171.489 251.600,171.859 251.060,172.200 250.400 C 172.541 249.740,172.731 249.200,172.621 249.200 C 172.511 249.200,172.141 249.740,171.800 250.400 M227.800 250.400 C 228.141 251.060,228.511 251.600,228.621 251.600 C 228.731 251.600,228.541 251.060,228.200 250.400 C 227.859 249.740,227.489 249.200,227.379 249.200 C 227.269 249.200,227.459 249.740,227.800 250.400 M155.200 252.400 C 154.751 253.280,154.474 254.000,154.584 254.000 C 154.694 254.000,155.151 253.280,155.600 252.400 C 156.049 251.520,156.326 250.800,156.216 250.800 C 156.106 250.800,155.649 251.520,155.200 252.400 M244.400 252.400 C 244.849 253.280,245.306 254.000,245.416 254.000 C 245.526 254.000,245.249 253.280,244.800 252.400 C 244.351 251.520,243.894 250.800,243.784 250.800 C 243.674 250.800,243.951 251.520,244.400 252.400 M90.000 253.600 C 89.551 254.480,89.274 255.200,89.384 255.200 C 89.494 255.200,89.951 254.480,90.400 253.600 C 90.849 252.720,91.126 252.000,91.016 252.000 C 90.906 252.000,90.449 252.720,90.000 253.600 M170.681 252.300 C 170.589 252.465,170.009 253.500,169.391 254.600 C 168.774 255.700,168.454 256.420,168.681 256.200 C 169.260 255.639,171.322 252.000,171.062 252.000 C 170.944 252.000,170.772 252.135,170.681 252.300 M229.787 253.800 C 230.403 254.900,231.092 255.980,231.319 256.200 C 231.546 256.420,231.228 255.700,230.613 254.600 C 229.997 253.500,229.308 252.420,229.081 252.200 C 228.854 251.980,229.172 252.700,229.787 253.800 M309.600 253.600 C 310.049 254.480,310.506 255.200,310.616 255.200 C 310.726 255.200,310.449 254.480,310.000 253.600 C 309.551 252.720,309.094 252.000,308.984 252.000 C 308.874 252.000,309.151 252.720,309.600 253.600 M153.200 256.000 C 152.751 256.880,152.474 257.600,152.584 257.600 C 152.694 257.600,153.151 256.880,153.600 256.000 C 154.049 255.120,154.326 254.400,154.216 254.400 C 154.106 254.400,153.649 255.120,153.200 256.000 M246.400 256.000 C 246.849 256.880,247.306 257.600,247.416 257.600 C 247.526 257.600,247.249 256.880,246.800 256.000 C 246.351 255.120,245.894 254.400,245.784 254.400 C 245.674 254.400,245.951 255.120,246.400 256.000 M88.200 256.800 C 87.859 257.460,87.669 258.000,87.779 258.000 C 87.889 258.000,88.259 257.460,88.600 256.800 C 88.941 256.140,89.131 255.600,89.021 255.600 C 88.911 255.600,88.541 256.140,88.200 256.800 M311.400 256.800 C 311.741 257.460,312.111 258.000,312.221 258.000 C 312.331 258.000,312.141 257.460,311.800 256.800 C 311.459 256.140,311.089 255.600,310.979 255.600 C 310.869 255.600,311.059 256.140,311.400 256.800 M167.400 258.000 C 167.059 258.660,166.869 259.200,166.979 259.200 C 167.089 259.200,167.459 258.660,167.800 258.000 C 168.141 257.340,168.331 256.800,168.221 256.800 C 168.111 256.800,167.741 257.340,167.400 258.000 M232.200 258.000 C 232.541 258.660,232.911 259.200,233.021 259.200 C 233.131 259.200,232.941 258.660,232.600 258.000 C 232.259 257.340,231.889 256.800,231.779 256.800 C 231.669 256.800,231.859 257.340,232.200 258.000 M151.200 259.600 C 150.751 260.480,150.474 261.200,150.584 261.200 C 150.694 261.200,151.151 260.480,151.600 259.600 C 152.049 258.720,152.326 258.000,152.216 258.000 C 152.106 258.000,151.649 258.720,151.200 259.600 M248.400 259.600 C 248.849 260.480,249.306 261.200,249.416 261.200 C 249.526 261.200,249.249 260.480,248.800 259.600 C 248.351 258.720,247.894 258.000,247.784 258.000 C 247.674 258.000,247.951 258.720,248.400 259.600 M86.000 260.800 C 85.551 261.680,85.274 262.400,85.384 262.400 C 85.494 262.400,85.951 261.680,86.400 260.800 C 86.849 259.920,87.126 259.200,87.016 259.200 C 86.906 259.200,86.449 259.920,86.000 260.800 M313.600 260.800 C 314.049 261.680,314.506 262.400,314.616 262.400 C 314.726 262.400,314.449 261.680,314.000 260.800 C 313.551 259.920,313.094 259.200,312.984 259.200 C 312.874 259.200,313.151 259.920,313.600 260.800 M165.800 260.800 C 165.459 261.460,165.269 262.000,165.379 262.000 C 165.489 262.000,165.859 261.460,166.200 260.800 C 166.541 260.140,166.731 259.600,166.621 259.600 C 166.511 259.600,166.141 260.140,165.800 260.800 M233.800 260.800 C 234.141 261.460,234.511 262.000,234.621 262.000 C 234.731 262.000,234.541 261.460,234.200 260.800 C 233.859 260.140,233.489 259.600,233.379 259.600 C 233.269 259.600,233.459 260.140,233.800 260.800 M149.200 263.200 C 148.751 264.080,148.474 264.800,148.584 264.800 C 148.694 264.800,149.151 264.080,149.600 263.200 C 150.049 262.320,150.326 261.600,150.216 261.600 C 150.106 261.600,149.649 262.320,149.200 263.200 M250.400 263.200 C 250.849 264.080,251.306 264.800,251.416 264.800 C 251.526 264.800,251.249 264.080,250.800 263.200 C 250.351 262.320,249.894 261.600,249.784 261.600 C 249.674 261.600,249.951 262.320,250.400 263.200 M84.000 264.400 C 83.551 265.280,83.274 266.000,83.384 266.000 C 83.494 266.000,83.951 265.280,84.400 264.400 C 84.849 263.520,85.126 262.800,85.016 262.800 C 84.906 262.800,84.449 263.520,84.000 264.400 M315.600 264.400 C 316.049 265.280,316.506 266.000,316.616 266.000 C 316.726 266.000,316.449 265.280,316.000 264.400 C 315.551 263.520,315.094 262.800,314.984 262.800 C 314.874 262.800,315.151 263.520,315.600 264.400 M147.400 266.400 C 147.059 267.060,146.869 267.600,146.979 267.600 C 147.089 267.600,147.459 267.060,147.800 266.400 C 148.141 265.740,148.331 265.200,148.221 265.200 C 148.111 265.200,147.741 265.740,147.400 266.400 M252.200 266.400 C 252.541 267.060,252.911 267.600,253.021 267.600 C 253.131 267.600,252.941 267.060,252.600 266.400 C 252.259 265.740,251.889 265.200,251.779 265.200 C 251.669 265.200,251.859 265.740,252.200 266.400 M157.400 266.066 C 155.517 267.105,152.749 270.483,153.317 271.050 C 153.413 271.147,153.710 270.701,153.975 270.060 C 154.536 268.706,156.090 267.164,157.800 266.264 C 158.460 265.916,158.820 265.630,158.600 265.628 C 158.380 265.626,157.840 265.823,157.400 266.066 M242.200 266.264 C 243.910 267.164,245.464 268.706,246.025 270.060 C 246.290 270.701,246.588 271.145,246.686 271.047 C 247.507 270.227,242.874 265.538,241.320 265.616 C 241.144 265.625,241.540 265.916,242.200 266.264 M82.000 268.000 C 81.551 268.880,81.274 269.600,81.384 269.600 C 81.494 269.600,81.951 268.880,82.400 268.000 C 82.849 267.120,83.126 266.400,83.016 266.400 C 82.906 266.400,82.449 267.120,82.000 268.000 M317.600 268.000 C 318.049 268.880,318.506 269.600,318.616 269.600 C 318.726 269.600,318.449 268.880,318.000 268.000 C 317.551 267.120,317.094 266.400,316.984 266.400 C 316.874 266.400,317.151 267.120,317.600 268.000 M145.400 270.000 C 145.059 270.660,144.869 271.200,144.979 271.200 C 145.089 271.200,145.459 270.660,145.800 270.000 C 146.141 269.340,146.331 268.800,146.221 268.800 C 146.111 268.800,145.741 269.340,145.400 270.000 M254.200 270.000 C 254.541 270.660,254.911 271.200,255.021 271.200 C 255.131 271.200,254.941 270.660,254.600 270.000 C 254.259 269.340,253.889 268.800,253.779 268.800 C 253.669 268.800,253.859 269.340,254.200 270.000 M80.000 271.600 C 79.551 272.480,79.274 273.200,79.384 273.200 C 79.494 273.200,79.951 272.480,80.400 271.600 C 80.849 270.720,81.126 270.000,81.016 270.000 C 80.906 270.000,80.449 270.720,80.000 271.600 M319.600 271.600 C 320.049 272.480,320.506 273.200,320.616 273.200 C 320.726 273.200,320.449 272.480,320.000 271.600 C 319.551 270.720,319.094 270.000,318.984 270.000 C 318.874 270.000,319.151 270.720,319.600 271.600 M143.600 273.200 C 143.151 274.080,142.874 274.800,142.984 274.800 C 143.094 274.800,143.551 274.080,144.000 273.200 C 144.449 272.320,144.726 271.600,144.616 271.600 C 144.506 271.600,144.049 272.320,143.600 273.200 M256.000 273.200 C 256.449 274.080,256.906 274.800,257.016 274.800 C 257.126 274.800,256.849 274.080,256.400 273.200 C 255.951 272.320,255.494 271.600,255.384 271.600 C 255.274 271.600,255.551 272.320,256.000 273.200 M78.000 275.200 C 77.551 276.080,77.274 276.800,77.384 276.800 C 77.494 276.800,77.951 276.080,78.400 275.200 C 78.849 274.320,79.126 273.600,79.016 273.600 C 78.906 273.600,78.449 274.320,78.000 275.200 M321.600 275.200 C 322.049 276.080,322.506 276.800,322.616 276.800 C 322.726 276.800,322.449 276.080,322.000 275.200 C 321.551 274.320,321.094 273.600,320.984 273.600 C 320.874 273.600,321.151 274.320,321.600 275.200 M141.600 276.800 C 141.151 277.680,140.874 278.400,140.984 278.400 C 141.094 278.400,141.551 277.680,142.000 276.800 C 142.449 275.920,142.726 275.200,142.616 275.200 C 142.506 275.200,142.049 275.920,141.600 276.800 M258.000 276.800 C 258.449 277.680,258.906 278.400,259.016 278.400 C 259.126 278.400,258.849 277.680,258.400 276.800 C 257.951 275.920,257.494 275.200,257.384 275.200 C 257.274 275.200,257.551 275.920,258.000 276.800 M153.216 276.920 C 153.138 278.474,157.827 283.107,158.647 282.286 C 158.745 282.188,158.301 281.890,157.660 281.625 C 156.306 281.064,154.764 279.510,153.864 277.800 C 153.516 277.140,153.225 276.744,153.216 276.920 M169.401 277.596 C 168.988 278.899,166.951 281.040,165.589 281.605 C 164.921 281.881,164.453 282.187,164.550 282.283 C 164.863 282.596,166.971 281.303,168.051 280.136 C 169.241 278.850,170.162 277.229,169.869 276.936 C 169.761 276.828,169.551 277.125,169.401 277.596 M230.016 276.920 C 229.938 278.474,234.627 283.107,235.447 282.286 C 235.545 282.188,235.101 281.890,234.460 281.625 C 233.106 281.064,231.564 279.510,230.664 277.800 C 230.316 277.140,230.025 276.744,230.016 276.920 M246.201 277.596 C 245.788 278.899,243.751 281.040,242.389 281.605 C 241.721 281.881,241.253 282.187,241.350 282.283 C 241.663 282.596,243.771 281.303,244.851 280.136 C 246.041 278.850,246.962 277.229,246.669 276.936 C 246.561 276.828,246.351 277.125,246.201 277.596 M76.000 278.800 C 75.551 279.680,75.274 280.400,75.384 280.400 C 75.494 280.400,75.951 279.680,76.400 278.800 C 76.849 277.920,77.126 277.200,77.016 277.200 C 76.906 277.200,76.449 277.920,76.000 278.800 M323.600 278.800 C 324.049 279.680,324.506 280.400,324.616 280.400 C 324.726 280.400,324.449 279.680,324.000 278.800 C 323.551 277.920,323.094 277.200,322.984 277.200 C 322.874 277.200,323.151 277.920,323.600 278.800 M139.600 280.400 C 139.151 281.280,138.874 282.000,138.984 282.000 C 139.094 282.000,139.551 281.280,140.000 280.400 C 140.449 279.520,140.726 278.800,140.616 278.800 C 140.506 278.800,140.049 279.520,139.600 280.400 M260.000 280.400 C 260.449 281.280,260.906 282.000,261.016 282.000 C 261.126 282.000,260.849 281.280,260.400 280.400 C 259.951 279.520,259.494 278.800,259.384 278.800 C 259.274 278.800,259.551 279.520,260.000 280.400 M74.000 282.400 C 73.551 283.280,73.274 284.000,73.384 284.000 C 73.494 284.000,73.951 283.280,74.400 282.400 C 74.849 281.520,75.126 280.800,75.016 280.800 C 74.906 280.800,74.449 281.520,74.000 282.400 M325.600 282.400 C 326.049 283.280,326.506 284.000,326.616 284.000 C 326.726 284.000,326.449 283.280,326.000 282.400 C 325.551 281.520,325.094 280.800,324.984 280.800 C 324.874 280.800,325.151 281.520,325.600 282.400 M137.800 283.600 C 137.459 284.260,137.269 284.800,137.379 284.800 C 137.489 284.800,137.859 284.260,138.200 283.600 C 138.541 282.940,138.731 282.400,138.621 282.400 C 138.511 282.400,138.141 282.940,137.800 283.600 M262.000 284.000 C 262.449 284.880,262.906 285.600,263.016 285.600 C 263.126 285.600,262.849 284.880,262.400 284.000 C 261.951 283.120,261.494 282.400,261.384 282.400 C 261.274 282.400,261.551 283.120,262.000 284.000 M72.200 285.600 C 71.859 286.260,71.669 286.800,71.779 286.800 C 71.889 286.800,72.259 286.260,72.600 285.600 C 72.941 284.940,73.131 284.400,73.021 284.400 C 72.911 284.400,72.541 284.940,72.200 285.600 M327.400 285.600 C 327.741 286.260,328.111 286.800,328.221 286.800 C 328.331 286.800,328.141 286.260,327.800 285.600 C 327.459 284.940,327.089 284.400,326.979 284.400 C 326.869 284.400,327.059 284.940,327.400 285.600 M70.000 289.600 C 69.551 290.480,69.274 291.200,69.384 291.200 C 69.494 291.200,69.951 290.480,70.400 289.600 C 70.849 288.720,71.126 288.000,71.016 288.000 C 70.906 288.000,70.449 288.720,70.000 289.600 M329.600 289.600 C 330.049 290.480,330.506 291.200,330.616 291.200 C 330.726 291.200,330.449 290.480,330.000 289.600 C 329.551 288.720,329.094 288.000,328.984 288.000 C 328.874 288.000,329.151 288.720,329.600 289.600 M68.000 293.200 C 67.551 294.080,67.274 294.800,67.384 294.800 C 67.494 294.800,67.951 294.080,68.400 293.200 C 68.849 292.320,69.126 291.600,69.016 291.600 C 68.906 291.600,68.449 292.320,68.000 293.200 M331.600 293.200 C 332.049 294.080,332.506 294.800,332.616 294.800 C 332.726 294.800,332.449 294.080,332.000 293.200 C 331.551 292.320,331.094 291.600,330.984 291.600 C 330.874 291.600,331.151 292.320,331.600 293.200 M66.000 296.800 C 65.551 297.680,65.274 298.400,65.384 298.400 C 65.494 298.400,65.951 297.680,66.400 296.800 C 66.849 295.920,67.126 295.200,67.016 295.200 C 66.906 295.200,66.449 295.920,66.000 296.800 M333.600 296.800 C 334.049 297.680,334.506 298.400,334.616 298.400 C 334.726 298.400,334.449 297.680,334.000 296.800 C 333.551 295.920,333.094 295.200,332.984 295.200 C 332.874 295.200,333.151 295.920,333.600 296.800 M64.000 300.400 C 63.551 301.280,63.274 302.000,63.384 302.000 C 63.494 302.000,63.951 301.280,64.400 300.400 C 64.849 299.520,65.126 298.800,65.016 298.800 C 64.906 298.800,64.449 299.520,64.000 300.400 M335.600 300.400 C 336.049 301.280,336.506 302.000,336.616 302.000 C 336.726 302.000,336.449 301.280,336.000 300.400 C 335.551 299.520,335.094 298.800,334.984 298.800 C 334.874 298.800,335.151 299.520,335.600 300.400 M62.000 304.000 C 61.551 304.880,61.274 305.600,61.384 305.600 C 61.494 305.600,61.951 304.880,62.400 304.000 C 62.849 303.120,63.126 302.400,63.016 302.400 C 62.906 302.400,62.449 303.120,62.000 304.000 M337.600 304.000 C 338.049 304.880,338.506 305.600,338.616 305.600 C 338.726 305.600,338.449 304.880,338.000 304.000 C 337.551 303.120,337.094 302.400,336.984 302.400 C 336.874 302.400,337.151 303.120,337.600 304.000 M60.000 307.600 C 59.551 308.480,59.274 309.200,59.384 309.200 C 59.494 309.200,59.951 308.480,60.400 307.600 C 60.849 306.720,61.126 306.000,61.016 306.000 C 60.906 306.000,60.449 306.720,60.000 307.600 M339.600 307.600 C 340.049 308.480,340.506 309.200,340.616 309.200 C 340.726 309.200,340.449 308.480,340.000 307.600 C 339.551 306.720,339.094 306.000,338.984 306.000 C 338.874 306.000,339.151 306.720,339.600 307.600 M58.000 311.200 C 57.551 312.080,57.274 312.800,57.384 312.800 C 57.494 312.800,57.951 312.080,58.400 311.200 C 58.849 310.320,59.126 309.600,59.016 309.600 C 58.906 309.600,58.449 310.320,58.000 311.200 M341.600 311.200 C 342.049 312.080,342.506 312.800,342.616 312.800 C 342.726 312.800,342.449 312.080,342.000 311.200 C 341.551 310.320,341.094 309.600,340.984 309.600 C 340.874 309.600,341.151 310.320,341.600 311.200 M56.200 314.400 C 55.859 315.060,55.669 315.600,55.779 315.600 C 55.889 315.600,56.259 315.060,56.600 314.400 C 56.941 313.740,57.131 313.200,57.021 313.200 C 56.911 313.200,56.541 313.740,56.200 314.400 M343.400 314.400 C 343.741 315.060,344.111 315.600,344.221 315.600 C 344.331 315.600,344.141 315.060,343.800 314.400 C 343.459 313.740,343.089 313.200,342.979 313.200 C 342.869 313.200,343.059 313.740,343.400 314.400 M54.000 318.400 C 53.551 319.280,53.274 320.000,53.384 320.000 C 53.494 320.000,53.951 319.280,54.400 318.400 C 54.849 317.520,55.126 316.800,55.016 316.800 C 54.906 316.800,54.449 317.520,54.000 318.400 M345.600 318.400 C 346.049 319.280,346.506 320.000,346.616 320.000 C 346.726 320.000,346.449 319.280,346.000 318.400 C 345.551 317.520,345.094 316.800,344.984 316.800 C 344.874 316.800,345.151 317.520,345.600 318.400 M322.305 320.283 C 322.802 320.379,323.522 320.375,323.905 320.275 C 324.287 320.175,323.880 320.096,323.000 320.101 C 322.120 320.105,321.807 320.187,322.305 320.283 M52.000 322.000 C 51.551 322.880,51.274 323.600,51.384 323.600 C 51.494 323.600,51.951 322.880,52.400 322.000 C 52.849 321.120,53.126 320.400,53.016 320.400 C 52.906 320.400,52.449 321.120,52.000 322.000 M347.600 322.000 C 348.049 322.880,348.506 323.600,348.616 323.600 C 348.726 323.600,348.449 322.880,348.000 322.000 C 347.551 321.120,347.094 320.400,346.984 320.400 C 346.874 320.400,347.151 321.120,347.600 322.000 M326.400 320.979 C 326.400 321.089,326.940 321.459,327.600 321.800 C 328.260 322.141,328.800 322.331,328.800 322.221 C 328.800 322.111,328.260 321.741,327.600 321.400 C 326.940 321.059,326.400 320.869,326.400 320.979 M71.500 322.229 C 70.005 323.040,70.096 323.378,71.600 322.600 C 72.260 322.259,72.800 321.894,72.800 321.790 C 72.800 321.532,72.757 321.547,71.500 322.229 M329.200 322.579 C 329.200 322.689,329.740 323.059,330.400 323.400 C 331.060 323.741,331.600 323.931,331.600 323.821 C 331.600 323.711,331.060 323.341,330.400 323.000 C 329.740 322.659,329.200 322.469,329.200 322.579 M68.700 323.829 C 67.205 324.640,67.296 324.978,68.800 324.200 C 69.460 323.859,70.000 323.494,70.000 323.390 C 70.000 323.132,69.957 323.147,68.700 323.829 M50.000 325.600 C 49.551 326.480,49.274 327.200,49.384 327.200 C 49.494 327.200,49.951 326.480,50.400 325.600 C 50.849 324.720,51.126 324.000,51.016 324.000 C 50.906 324.000,50.449 324.720,50.000 325.600 M79.000 326.000 C 78.443 327.100,77.844 328.000,77.670 328.000 C 77.495 328.000,77.004 328.279,76.576 328.619 C 75.889 329.168,75.949 329.167,77.098 328.610 C 78.202 328.076,80.956 324.000,80.213 324.000 C 80.103 324.000,79.557 324.900,79.000 326.000 M319.996 325.592 C 320.475 326.532,321.339 327.441,322.104 327.811 C 323.254 328.368,323.312 328.369,322.624 327.819 C 322.196 327.479,321.705 327.200,321.532 327.200 C 321.358 327.200,320.849 326.480,320.400 325.600 C 319.951 324.720,319.494 324.000,319.384 324.000 C 319.274 324.000,319.549 324.716,319.996 325.592 M332.000 324.179 C 332.000 324.289,332.540 324.659,333.200 325.000 C 333.860 325.341,334.400 325.531,334.400 325.421 C 334.400 325.311,333.860 324.941,333.200 324.600 C 332.540 324.259,332.000 324.069,332.000 324.179 M349.600 325.600 C 350.049 326.480,350.506 327.200,350.616 327.200 C 350.726 327.200,350.449 326.480,350.000 325.600 C 349.551 324.720,349.094 324.000,348.984 324.000 C 348.874 324.000,349.151 324.720,349.600 325.600 M65.900 325.429 C 64.405 326.240,64.496 326.578,66.000 325.800 C 66.660 325.459,67.200 325.094,67.200 324.990 C 67.200 324.732,67.157 324.747,65.900 325.429 M334.800 325.762 C 334.800 325.884,335.503 326.343,336.363 326.781 C 337.223 327.220,338.019 327.768,338.133 327.999 C 338.247 328.231,338.295 328.190,338.241 327.910 C 338.143 327.411,334.800 325.324,334.800 325.762 M62.631 327.307 C 61.768 327.798,61.017 328.430,60.961 328.710 C 60.905 328.990,60.953 329.031,61.067 328.799 C 61.181 328.568,61.977 328.020,62.837 327.581 C 63.697 327.143,64.400 326.697,64.400 326.592 C 64.400 326.309,64.340 326.333,62.631 327.307 M48.000 329.200 C 47.551 330.080,47.274 330.800,47.384 330.800 C 47.494 330.800,47.951 330.080,48.400 329.200 C 48.849 328.320,49.126 327.600,49.016 327.600 C 48.906 327.600,48.449 328.320,48.000 329.200 M351.600 329.200 C 352.049 330.080,352.506 330.800,352.616 330.800 C 352.726 330.800,352.449 330.080,352.000 329.200 C 351.551 328.320,351.094 327.600,350.984 327.600 C 350.874 327.600,351.151 328.320,351.600 329.200 M323.600 328.584 C 323.600 328.694,324.320 329.151,325.200 329.600 C 326.080 330.049,326.800 330.326,326.800 330.216 C 326.800 330.106,326.080 329.649,325.200 329.200 C 324.320 328.751,323.600 328.474,323.600 328.584 M338.570 330.149 C 338.586 330.903,338.735 331.438,338.900 331.337 C 339.294 331.095,339.273 329.935,338.863 329.289 C 338.664 328.974,338.551 329.304,338.570 330.149 M73.900 330.027 C 73.075 330.463,72.400 330.908,72.400 331.018 C 72.400 331.127,73.120 330.849,74.000 330.400 C 74.880 329.951,75.600 329.497,75.600 329.392 C 75.600 329.130,75.597 329.131,73.900 330.027 M60.157 330.629 C 60.015 331.195,60.056 331.815,60.249 332.007 C 60.450 332.206,60.613 331.765,60.630 330.978 C 60.666 329.338,60.510 329.223,60.157 330.629 M327.200 330.579 C 327.200 330.689,327.740 331.059,328.400 331.400 C 329.060 331.741,329.600 331.931,329.600 331.821 C 329.600 331.711,329.060 331.341,328.400 331.000 C 327.740 330.659,327.200 330.469,327.200 330.579 M46.000 332.800 C 45.551 333.680,45.274 334.400,45.384 334.400 C 45.494 334.400,45.951 333.680,46.400 332.800 C 46.849 331.920,47.126 331.200,47.016 331.200 C 46.906 331.200,46.449 331.920,46.000 332.800 M70.700 331.829 C 69.205 332.640,69.296 332.978,70.800 332.200 C 71.460 331.859,72.000 331.494,72.000 331.390 C 72.000 331.132,71.957 331.147,70.700 331.829 M353.600 332.800 C 354.049 333.680,354.506 334.400,354.616 334.400 C 354.726 334.400,354.449 333.680,354.000 332.800 C 353.551 331.920,353.094 331.200,352.984 331.200 C 352.874 331.200,353.151 331.920,353.600 332.800 M330.000 332.179 C 330.000 332.289,330.540 332.659,331.200 333.000 C 331.860 333.341,332.400 333.531,332.400 333.421 C 332.400 333.311,331.860 332.941,331.200 332.600 C 330.540 332.259,330.000 332.069,330.000 332.179 M337.437 333.000 C 337.076 333.550,336.937 334.000,337.127 334.000 C 337.316 334.000,337.677 333.550,337.927 333.000 C 338.178 332.450,338.317 332.000,338.237 332.000 C 338.157 332.000,337.797 332.450,337.437 333.000 M61.273 333.800 C 61.523 334.350,61.884 334.800,62.073 334.800 C 62.263 334.800,62.124 334.350,61.763 333.800 C 61.403 333.250,61.043 332.800,60.963 332.800 C 60.883 332.800,61.022 333.250,61.273 333.800 M67.900 333.429 C 66.405 334.240,66.496 334.578,68.000 333.800 C 68.660 333.459,69.200 333.094,69.200 332.990 C 69.200 332.732,69.157 332.747,67.900 333.429 M333.166 334.126 C 333.347 334.307,334.193 334.393,335.047 334.319 L 336.600 334.183 334.719 333.990 C 333.684 333.884,332.985 333.945,333.166 334.126 M64.400 334.800 L 62.600 335.080 64.276 335.140 C 65.198 335.173,66.064 335.020,66.200 334.800 C 66.336 334.580,66.392 334.427,66.324 334.460 C 66.256 334.493,65.390 334.646,64.400 334.800 M44.000 336.400 C 43.551 337.280,43.274 338.000,43.384 338.000 C 43.494 338.000,43.951 337.280,44.400 336.400 C 44.849 335.520,45.126 334.800,45.016 334.800 C 44.906 334.800,44.449 335.520,44.000 336.400 M355.600 336.400 C 356.049 337.280,356.506 338.000,356.616 338.000 C 356.726 338.000,356.449 337.280,356.000 336.400 C 355.551 335.520,355.094 334.800,354.984 334.800 C 354.874 334.800,355.151 335.520,355.600 336.400 M42.000 340.000 C 41.551 340.880,41.274 341.600,41.384 341.600 C 41.494 341.600,41.951 340.880,42.400 340.000 C 42.849 339.120,43.126 338.400,43.016 338.400 C 42.906 338.400,42.449 339.120,42.000 340.000 M357.600 340.000 C 358.049 340.880,358.506 341.600,358.616 341.600 C 358.726 341.600,358.449 340.880,358.000 340.000 C 357.551 339.120,357.094 338.400,356.984 338.400 C 356.874 338.400,357.151 339.120,357.600 340.000 " stroke="none" fill="#b2b2b8" fill-rule="evenodd"></path><path id="path2" d="" stroke="none" fill="#dcdcdc" fill-rule="evenodd"></path><path id="path3" d="" stroke="none" fill="#bcbcbc" fill-rule="evenodd"></path><path id="path4" d="" stroke="none" fill="#c4c4c4" fill-rule="evenodd"></path></g></svg>